<?xml version="1.0" encoding="UTF-8"?>
<svg version="1.1" xmlns="http://www.w3.org/2000/svg" width="45" height="45">
<path d="M0 0 C14.85 0 29.7 0 45 0 C45 14.85 45 29.7 45 45 C30.15 45 15.3 45 0 45 C0 30.15 0 15.3 0 0 Z " fill="#312122" transform="translate(0,0)"/>
<path d="M0 0 C1.27423828 -0.00193359 1.27423828 -0.00193359 2.57421875 -0.00390625 C3.91419922 0.00189453 3.91419922 0.00189453 5.28125 0.0078125 C6.17457031 0.00394531 7.06789063 0.00007812 7.98828125 -0.00390625 C8.83777344 -0.00261719 9.68726563 -0.00132813 10.5625 0 C11.34689453 0.00112793 12.13128906 0.00225586 12.93945312 0.00341797 C14.78125 0.1328125 14.78125 0.1328125 15.78125 1.1328125 C15.88057392 3.44355418 15.91094618 5.75744192 15.90625 8.0703125 C15.91011719 9.97103516 15.91011719 9.97103516 15.9140625 11.91015625 C15.78125 15.1328125 15.78125 15.1328125 14.78125 17.1328125 C11.61885318 17.43093821 8.50152544 17.54869522 5.328125 17.61132812 C1.30966881 17.712935 1.30966881 17.712935 -2.0703125 19.66796875 C-2.44929687 20.15136719 -2.82828125 20.63476562 -3.21875 21.1328125 C-3.87875 21.1328125 -4.53875 21.1328125 -5.21875 21.1328125 C-5.24763146 17.82033063 -5.26550799 14.50788083 -5.28125 11.1953125 C-5.28962891 10.24978516 -5.29800781 9.30425781 -5.30664062 8.33007812 C-5.30986328 7.43095703 -5.31308594 6.53183594 -5.31640625 5.60546875 C-5.32164307 4.77281494 -5.32687988 3.94016113 -5.33227539 3.08227539 C-5.11875797 -0.5842549 -3.18885094 0.00458545 0 0 Z " fill="#3A2725" transform="translate(17.21875,11.8671875)"/>
<path d="M0 0 C1.27423828 -0.00193359 1.27423828 -0.00193359 2.57421875 -0.00390625 C3.91419922 0.00189453 3.91419922 0.00189453 5.28125 0.0078125 C6.17457031 0.00394531 7.06789063 0.00007812 7.98828125 -0.00390625 C8.83777344 -0.00261719 9.68726563 -0.00132813 10.5625 0 C11.34689453 0.00112793 12.13128906 0.00225586 12.93945312 0.00341797 C14.78125 0.1328125 14.78125 0.1328125 15.78125 1.1328125 C15.88057392 3.44355418 15.91094618 5.75744192 15.90625 8.0703125 C15.91011719 9.97103516 15.91011719 9.97103516 15.9140625 11.91015625 C15.78125 15.1328125 15.78125 15.1328125 14.78125 17.1328125 C11.61885318 17.43093821 8.50152544 17.54869522 5.328125 17.61132812 C1.30966881 17.712935 1.30966881 17.712935 -2.0703125 19.66796875 C-2.44929687 20.15136719 -2.82828125 20.63476562 -3.21875 21.1328125 C-3.87875 21.1328125 -4.53875 21.1328125 -5.21875 21.1328125 C-5.24763146 17.82033063 -5.26550799 14.50788083 -5.28125 11.1953125 C-5.28962891 10.24978516 -5.29800781 9.30425781 -5.30664062 8.33007812 C-5.30986328 7.43095703 -5.31308594 6.53183594 -5.31640625 5.60546875 C-5.32164307 4.77281494 -5.32687988 3.94016113 -5.33227539 3.08227539 C-5.11875797 -0.5842549 -3.18885094 0.00458545 0 0 Z M-3.21875 3.1328125 C-3.29146741 5.48594805 -3.30245868 7.84114918 -3.28125 10.1953125 C-3.27222656 11.48566406 -3.26320313 12.77601562 -3.25390625 14.10546875 C-3.24230469 15.10449219 -3.23070312 16.10351562 -3.21875 17.1328125 C-2.55875 16.8028125 -1.89875 16.4728125 -1.21875 16.1328125 C1.32740009 15.90108423 3.85521225 15.71386721 6.40625 15.5703125 C7.46585938 15.50553711 7.46585938 15.50553711 8.546875 15.43945312 C10.29143537 15.33336499 12.03631697 15.23258361 13.78125 15.1328125 C13.78125 10.8428125 13.78125 6.5528125 13.78125 2.1328125 C11.13534986 2.10596571 8.48971904 2.08604893 5.84375 2.0703125 C4.71163086 2.05774414 4.71163086 2.05774414 3.55664062 2.04492188 C-0.13066764 1.6675565 -0.13066764 1.6675565 -3.21875 3.1328125 Z " fill="#C68446" transform="translate(17.21875,11.8671875)"/>
<path d="M0 0 C6.27 0 12.54 0 19 0 C19 0.33 19 0.66 19 1 C11.08 1.495 11.08 1.495 3 2 C3 6.29 3 10.58 3 15 C3.99 14.67 4.98 14.34 6 14 C4.48601545 17.78496138 3.9855604 18.0072198 0 20 C0 13.4 0 6.8 0 0 Z " fill="#CF8A48" transform="translate(12,13)"/>
<path d="M0 0 C0.33 0 0.66 0 1 0 C1 2.31 1 4.62 1 7 C-1.31 7 -3.62 7 -6 7 C-5.195625 6.21625 -4.39125 5.4325 -3.5625 4.625 C-1.01309583 2.28017144 -1.01309583 2.28017144 0 0 Z " fill="#21161E" transform="translate(44,38)"/>
<path d="M0 0 C2.33333333 2.33333333 4.66666667 4.66666667 7 7 C4.69 7 2.38 7 0 7 C0 4.69 0 2.38 0 0 Z " fill="#21161E" transform="translate(0,38)"/>
<path d="M0 0 C2.31 0 4.62 0 7 0 C7 2.31 7 4.62 7 7 C4.66666667 4.66666667 2.33333333 2.33333333 0 0 Z " fill="#21161E" transform="translate(38,0)"/>
<path d="M0 0 C2.31 0 4.62 0 7 0 C4.66666667 2.33333333 2.33333333 4.66666667 0 7 C0 4.69 0 2.38 0 0 Z " fill="#21161E" transform="translate(0,0)"/>
</svg>
